<svg width="1179" height="672" viewBox="0 0 1179 672" fill="none" xmlns="http://www.w3.org/2000/svg">
<path d="M885.057 0.15918L923.713 17.1689L1080.63 37.3672L1081.05 37.4209L1081.41 37.6504L1124.99 65.6631L1125.52 66.0088L1125.74 66.6084L1139.75 105.516L1139.81 105.704L1139.84 105.903L1167.85 314.446L1167.86 314.517L1167.87 314.589L1178.76 504.456L1178.79 505.001L1178.53 505.478L1155.18 547.498L1155.05 547.728L1124.75 578.035H1104.61L973.612 610.623L833.678 671.257L833.319 671.412H677.278L503.752 668.3L330.226 665.187L329.846 665.18L329.499 665.026L169.421 594.312L70.208 578.035H46.0234L45.4629 577.218L8.11133 522.747L7.95215 522.514L7.86719 522.244L0.0859375 497.344L0 497.069V450.039L0.00390625 449.984L7.78516 316.144L7.78711 316.11L15.5684 213.396L15.5703 213.374L21.7959 141.785L21.8027 141.697L21.8184 141.611L28.0439 107.373L28.0859 107.141L28.1846 106.926L45.3037 69.5752L45.5518 69.0332L46.0664 68.7334L83.417 46.9453L83.7324 46.7617L84.0947 46.709L254.703 21.8916L277.618 0.506836L278.16 0H884.694L885.057 0.15918ZM255.558 23.6699L84.3652 48.5703L47.0146 70.3584L29.8955 107.71L23.6699 141.948L17.4443 213.537L9.66309 316.253L1.88184 450.094V496.782L9.66309 521.684L47.0146 576.153H70.3584L169.961 592.494L330.26 663.306L503.786 666.418L677.312 669.531H832.93L973.008 608.836L1104.38 576.153H1123.97L1153.54 546.584L1176.88 504.563L1165.99 314.696L1137.97 106.153L1123.97 67.2461L1080.39 39.2324L923.206 19.001L884.299 1.88184H278.901L255.558 23.6699ZM953.123 105.365C967.554 105.365 979.815 115.92 981.962 130.19L1026.39 425.612C1028.59 440.2 1019.54 454.128 1005.32 458.059L927.689 479.517L927.68 479.52L927.67 479.521L780.408 516.878L780.369 516.888L780.33 516.895L687.511 532.215L687.502 532.217L687.494 532.218L645.992 538.304L645.941 538.312L645.89 538.313L598.587 539.992L598.554 539.993L598.52 539.992L552.11 538.313L552.063 538.312L552.017 538.305L507.392 532.219L507.374 532.217L507.356 532.213L420.338 516.893L420.304 516.887L420.271 516.879L272.116 479.522V479.521L174.7 457.035C160.319 453.715 150.684 440.173 152.264 425.498L183.911 131.408C185.505 116.595 198.009 105.365 212.907 105.365H953.123ZM212.907 107.246C198.97 107.246 187.273 117.752 185.782 131.609L154.134 425.7C152.657 439.428 161.669 452.095 175.123 455.201L272.558 477.693L272.567 477.695L272.576 477.698L420.691 515.044L507.658 530.355L552.227 536.434L598.554 538.109L645.774 536.434L687.204 530.358L779.986 515.044L927.195 477.7L1004.82 456.245C1018.12 452.569 1026.59 439.538 1024.53 425.892L980.102 130.471C978.094 117.12 966.623 107.246 953.123 107.246H212.907ZM1055.73 277.522C1071.95 277.522 1085.1 290.671 1085.1 306.892C1085.1 323.112 1071.95 336.261 1055.73 336.261C1039.51 336.261 1026.36 323.112 1026.36 306.892C1026.36 290.671 1039.51 277.522 1055.73 277.522ZM99.4854 215.433C102.31 215.433 104.601 217.723 104.601 220.548V244.42H128.472C131.297 244.42 133.587 246.71 133.587 249.535V263.176C133.587 266.001 131.297 268.291 128.472 268.291H104.601V292.163C104.6 294.988 102.31 297.278 99.4854 297.278H85.8438C83.0189 297.278 80.7288 294.988 80.7285 292.163V268.291H56.8574C54.0323 268.291 51.7422 266.001 51.7422 263.176V249.535C51.7422 246.71 54.0323 244.42 56.8574 244.42H80.7285V220.548C80.7285 217.723 83.0187 215.433 85.8438 215.433H99.4854ZM1123.96 224.84C1138.38 224.84 1150.07 236.528 1150.07 250.945C1150.07 265.363 1138.38 277.052 1123.96 277.052C1109.55 277.052 1097.86 265.363 1097.86 250.945C1097.86 236.528 1109.55 224.84 1123.96 224.84Z" fill="#1A1A1A"/>
</svg>
